<mxfile host="app.diagrams.net" modified="2023-08-24T18:16:26.202Z" agent="Mozilla/5.0 (Windows NT 10.0; Win64; x64) AppleWebKit/537.36 (KHTML, like Gecko) Chrome/115.0.0.0 Safari/537.36" version="21.6.9" etag="tG4P1LZ1Q3OT4e1iqwHr" type="github">
  <diagram name="Page-1" id="7Zp1zybddH8cF1dnOYvV">
    <mxGraphModel>
      <root>
        <mxCell id="0" />
        <mxCell id="1" parent="0" />
      </root>
    </mxGraphModel>
  </diagram>
</mxfile>
